<?xml version="1.0" encoding="UTF-8" standalone="no"?>
<!DOCTYPE svg PUBLIC "-//W3C//DTD SVG 1.1//EN"
 "http://www.w3.org/Graphics/SVG/1.1/DTD/svg11.dtd">
<!-- Generated by graphviz version 2.40.1 (20161225.0304)
 -->
<!-- Title: D Pages: 1 -->
<svg width="278pt" height="188pt"
 viewBox="0.00 0.00 278.00 188.00" xmlns="http://www.w3.org/2000/svg" xmlns:xlink="http://www.w3.org/1999/xlink">
<g id="graph0" class="graph" transform="scale(1 1) rotate(0) translate(4 184)">
<title>D</title>
<polygon fill="#ffffff" stroke="transparent" points="-4,4 -4,-184 274,-184 274,4 -4,4"/>
<!-- A -->
<g id="node1" class="node">
<title>A</title>
<ellipse fill="none" stroke="#000000" cx="135" cy="-162" rx="27" ry="18"/>
<text text-anchor="middle" x="135" y="-158.3" font-family="Times,serif" font-size="14.00" fill="#000000">A</text>
</g>
<!-- AA -->
<g id="node2" class="node">
<title>AA</title>
<ellipse fill="none" stroke="#000000" cx="27" cy="-90" rx="27" ry="18"/>
<text text-anchor="middle" x="27" y="-86.3" font-family="Times,serif" font-size="14.00" fill="#000000">AA</text>
</g>
<!-- A&#45;&gt;AA -->
<g id="edge1" class="edge">
<title>A&#45;&gt;AA</title>
<path fill="none" stroke="#000000" d="M115.6918,-149.1278C98.6445,-137.763 73.5981,-121.0654 54.4656,-108.3104"/>
<polygon fill="#000000" stroke="#000000" points="56.4031,-105.3956 46.1411,-102.7607 52.5201,-111.2199 56.4031,-105.3956"/>
</g>
<!-- AB -->
<g id="node3" class="node">
<title>AB</title>
<ellipse fill="none" stroke="#000000" cx="99" cy="-90" rx="27" ry="18"/>
<text text-anchor="middle" x="99" y="-86.3" font-family="Times,serif" font-size="14.00" fill="#000000">AB</text>
</g>
<!-- A&#45;&gt;AB -->
<g id="edge2" class="edge">
<title>A&#45;&gt;AB</title>
<path fill="none" stroke="#000000" d="M126.2854,-144.5708C122.0403,-136.0807 116.8464,-125.6929 112.1337,-116.2674"/>
<polygon fill="#000000" stroke="#000000" points="115.237,-114.6477 107.6343,-107.2687 108.976,-117.7782 115.237,-114.6477"/>
</g>
<!-- AC -->
<g id="node4" class="node">
<title>AC</title>
<ellipse fill="none" stroke="#000000" cx="171" cy="-90" rx="27" ry="18"/>
<text text-anchor="middle" x="171" y="-86.3" font-family="Times,serif" font-size="14.00" fill="#000000">AC</text>
</g>
<!-- A&#45;&gt;AC -->
<g id="edge3" class="edge">
<title>A&#45;&gt;AC</title>
<path fill="none" stroke="#000000" d="M143.7146,-144.5708C147.9597,-136.0807 153.1536,-125.6929 157.8663,-116.2674"/>
<polygon fill="#000000" stroke="#000000" points="161.024,-117.7782 162.3657,-107.2687 154.763,-114.6477 161.024,-117.7782"/>
</g>
<!-- AD -->
<g id="node5" class="node">
<title>AD</title>
<ellipse fill="none" stroke="#000000" cx="243" cy="-90" rx="27" ry="18"/>
<text text-anchor="middle" x="243" y="-86.3" font-family="Times,serif" font-size="14.00" fill="#000000">AD</text>
</g>
<!-- A&#45;&gt;AD -->
<g id="edge4" class="edge">
<title>A&#45;&gt;AD</title>
<path fill="none" stroke="#000000" d="M154.3082,-149.1278C171.3555,-137.763 196.4019,-121.0654 215.5344,-108.3104"/>
<polygon fill="#000000" stroke="#000000" points="217.4799,-111.2199 223.8589,-102.7607 213.5969,-105.3956 217.4799,-111.2199"/>
</g>
<!-- ABA -->
<g id="node6" class="node">
<title>ABA</title>
<ellipse fill="none" stroke="#000000" cx="59" cy="-18" rx="31.3957" ry="18"/>
<text text-anchor="middle" x="59" y="-14.3" font-family="Times,serif" font-size="14.00" fill="#000000">ABA</text>
</g>
<!-- AB&#45;&gt;ABA -->
<g id="edge5" class="edge">
<title>AB&#45;&gt;ABA</title>
<path fill="none" stroke="#000000" d="M89.5206,-72.937C84.7585,-64.3654 78.8841,-53.7914 73.5647,-44.2165"/>
<polygon fill="#000000" stroke="#000000" points="76.6053,-42.4825 68.6893,-35.4407 70.4862,-45.882 76.6053,-42.4825"/>
</g>
<!-- ABB -->
<g id="node7" class="node">
<title>ABB</title>
<ellipse fill="none" stroke="#000000" cx="139" cy="-18" rx="31.3957" ry="18"/>
<text text-anchor="middle" x="139" y="-14.3" font-family="Times,serif" font-size="14.00" fill="#000000">ABB</text>
</g>
<!-- AB&#45;&gt;ABB -->
<g id="edge6" class="edge">
<title>AB&#45;&gt;ABB</title>
<path fill="none" stroke="#000000" d="M108.4794,-72.937C113.2415,-64.3654 119.1159,-53.7914 124.4353,-44.2165"/>
<polygon fill="#000000" stroke="#000000" points="127.5138,-45.882 129.3107,-35.4407 121.3947,-42.4825 127.5138,-45.882"/>
</g>
</g>
</svg>
